{"title":"Youre.The.Worst.S02E13.1080p.HDTV.x264-SERIOUSLY","uid":13083497,"size":1253899338,"categoryP":"video","categoryS":"hd___tv_shows","magnet":"?xt=urn:btih:36f28272ab0e794f5271f9350af3e6af8f083c4a&amp;dn=Youre.The.Worst.S02E13.1080p.HDTV.x264-SERIOUSLY&amp;tr=udp%3A%2F%2Ftracker.leechers-paradise.org%3A6969&amp;tr=udp%3A%2F%2Fzer0day.ch%3A1337&amp;tr=udp%3A%2F%2Fopen.demonii.com%3A1337&amp;tr=udp%3A%2F%2Ftracker.coppersurfer.tk%3A6969&amp;tr=udp%3A%2F%2Fexodus.desync.com%3A6969","seeders":0,"leechers":1,"uploader":"Mumo4","files":3,"time":1450932887,"description":"Video\r\nID                                       : 1\r\nFormat                                   : AVC\r\nFormat/Info                              : Advanced Video Codec\r\nFormat profile                           :   \r\nFormat settings, CABAC                   : Yes\r\nFormat settings, ReFrames                : 4 frames\r\nCodec ID                                 : V_MPEG4/ISO/AVC\r\nDuration                                 : 24mn 18s\r\nBit rate                                 : 6 685 Kbps\r\nWidth                                    : 1 920 pixels\r\nHeight                                   : 1 080 pixels\r\nDisplay aspect ratio                     : 16:9\r\nFrame rate mode                          : Constant\r\nFrame rate                               : 25.000 fps\r\nColor space                              : YUV\r\nChroma subsampling                       : 4:2:0\r\nBit depth                                : 8 bits\r\nScan type                                : Progressive\r\nBits/(Pixel*Frame)                       : 0.129\r\nStream size                              : 1.13 GiB (97%)\r\nWriting library                          : x264\r\nDefault                                  : Yes\r\nForced                                   : No\r\nColor range                              : Limited\r\nMatrix coefficients                      : BT.709\r\n\r\nAudio\r\nID                                       : 2\r\nFormat                                   : AC-3\r\nFormat/Info                              : Audio Coding 3\r\nMode extension                           : CM (complete main)\r\nFormat settings, Endianness              : Big\r\nCodec ID                                 : A_AC3\r\nDuration                                 : 24mn 18s\r\nBit rate mode                            : Constant\r\nBit rate                                 : 192 Kbps\r\nChannel(s)                               : 2 channels\r\nChannel positions                        : Front: L R\r\nSampling rate                            : 48.0 KHz\r\nFrame rate                               : 31.250 fps (1536 spf)\r\nCompression mode                         : Lossy\r\nStream size                              : 33.4 MiB (3%)\r\nDefault                                  : Yes\r\nForced                                   : No","torrent":{"xt":"urn:btih:36f28272ab0e794f5271f9350af3e6af8f083c4a","amp;dn":"Youre.The.Worst.S02E13.1080p.HDTV.x264-SERIOUSLY","amp;tr":["udp%3A%2F%2Ftracker.leechers-paradise.org%3A6969","udp%3A%2F%2Fzer0day.ch%3A1337","udp%3A%2F%2Fopen.demonii.com%3A1337","udp%3A%2F%2Ftracker.coppersurfer.tk%3A6969","udp%3A%2F%2Fexodus.desync.com%3A6969"],"infoHash":"36f28272ab0e794f5271f9350af3e6af8f083c4a","infoHashBuffer":{"type":"Buffer","data":[54,242,130,114,171,14,121,79,82,113,249,53,10,243,230,175,143,8,60,74]},"announce":[],"urlList":[]}}